<?xml version="1.0" standalone="no"?>
<!DOCTYPE svg PUBLIC "-//W3C//DTD SVG 20010904//EN"
 "http://www.w3.org/TR/2001/REC-SVG-20010904/DTD/svg10.dtd">
<svg version="1.0" xmlns="http://www.w3.org/2000/svg"
 width="300.000000pt" height="300.000000pt" viewBox="0 0 300.000000 300.000000"
 preserveAspectRatio="xMidYMid meet">
<metadata>
Created by potrace 1.14, written by Peter Selinger 2001-2017
</metadata>
<g transform="translate(0.000000,300.000000) scale(0.100000,-0.100000)"
fill="#000000" stroke="none">
<path d="M1355 2334 c-197 -22 -423 -95 -536 -175 l-27 -19 81 -157 c44 -87
81 -160 83 -162 2 -2 22 8 44 23 113 74 263 116 421 116 226 0 345 -82 368
-254 l7 -54 -275 -5 c-315 -6 -407 -20 -534 -81 -132 -63 -208 -151 -242 -281
-56 -218 49 -440 255 -537 103 -49 201 -69 340 -70 195 0 325 46 433 155 l57
58 0 -96 0 -95 215 0 215 0 0 518 c0 466 -2 526 -19 608 -68 328 -306 498
-715 509 -72 1 -149 1 -171 -1z m445 -1039 c0 -93 -23 -146 -89 -208 -69 -65
-143 -90 -261 -91 -86 -1 -100 2 -155 29 -75 37 -105 84 -105 163 0 63 18 102
61 133 58 41 102 48 332 48 l217 1 0 -75z"/>
</g>
</svg>
